<svg width="55" height="50" viewBox="0 0 50 50" fill="none" xmlns="http://www.w3.org/2000/svg"><path fill-rule="evenodd" clip-rule="evenodd" d="M15.3297 18.4556L16.3283 21.1571C16.3283 21.1571 27.5074 14.5095 31.5027 12.1522C36.7739 7.7821 32.1963 0.817685 27.2034 0.869795C25.9953 0.836465 24.8011 1.12317 23.7532 1.69814C22.7053 2.2731 21.8446 3.11386 21.2666 4.12721C19.3529 7.06686 21.1274 11.2796 22.8196 12.0971C22.9193 12.0372 23.323 11.7619 23.7822 11.4486C24.3428 11.0663 24.9861 10.6275 25.2609 10.4551C22.7082 8.97247 22.1571 4.0986 26.9808 3.62246C30.7814 3.48963 31.8913 8.33693 29.755 10.031C29.0614 10.4316 15.3297 18.4556 15.3297 18.4556ZM28.5908 15.5176L31.2815 14.0085C31.2815 14.0085 42.1556 21.7413 43.7096 22.5362C44.2438 22.8597 44.8563 23.0461 45.4881 23.0774C46.1198 23.1087 46.7493 22.9838 47.3156 22.7148C47.882 22.4458 48.366 22.0418 48.7209 21.5419C49.0758 21.042 49.2895 20.4631 49.3414 19.8612C49.563 14.8821 42.4617 15.0149 41.796 18.9079C41.2549 18.5503 40.929 18.3119 40.6031 18.0736L40.6031 18.0736L40.6031 18.0736C40.2772 17.8353 39.9513 17.5969 39.4103 17.2393C40.853 13.0286 46.2344 12.4462 49.0086 13.8491C50.1307 14.4121 51.0503 15.2834 51.6486 16.3503C52.2468 17.4173 52.4964 18.631 52.365 19.8346C51.7549 25.2899 46.0953 27.4091 42.4895 25.1315C40.6304 23.9126 28.5908 15.5176 28.5908 15.5176ZM39.1605 24.9445L36.7748 23.2493C36.7748 23.2493 31.5594 37.2323 31.0028 38.719C30.3392 41.7118 32.2807 46.6071 37.7456 46.5049C39.3181 46.3898 40.8068 45.7823 41.9806 44.7766C43.1544 43.771 43.9475 42.4235 44.2368 40.9434C44.369 39.2482 43.8204 37.5685 42.7025 36.2454C41.5845 34.9223 39.981 34.055 38.2176 33.8196C38.1284 34.0355 38.0528 34.2127 37.9811 34.3807L37.9805 34.3821L37.9805 34.3822L37.9804 34.3823C37.7624 34.8932 37.5803 35.3197 37.1634 36.4946C42.656 36.6009 42.6282 43.5397 37.4962 43.831C36.9105 43.8303 36.3327 43.7019 35.8069 43.4555C35.2811 43.209 34.8214 42.851 34.4627 42.409C34.104 41.9669 33.856 41.4524 33.7375 40.9047C33.619 40.3571 33.6333 39.7909 33.7791 39.2493C33.9729 38.6363 39.1605 24.9445 39.1605 24.9445ZM29.8936 37.1506L30.9757 34.1875C30.9757 34.1875 15.7467 34.214 13.5301 34.214C7.98177 34.4521 6.45662 39.4312 7.31606 42.3974C10.6446 51.0825 22.407 46.0758 20.1327 38.9019C19.1619 38.8754 17.5801 38.8488 17.1359 38.8488C18.0231 41.2857 16.7195 44.0128 13.7517 44.0925C12.8262 44.0933 11.9343 43.7618 11.2531 43.1638C10.5718 42.5658 10.151 41.7451 10.0742 40.8647C9.99736 39.9843 10.2701 39.1084 10.8384 38.4111C11.4066 37.7138 12.2288 37.246 13.1416 37.1005C14.138 37.1271 29.8936 37.1506 29.8936 37.1506ZM18.4652 32.9166H15.2747C15.2747 32.9166 10.7538 19.0654 10.4466 18.1928C10.079 17.4969 9.48595 16.9328 8.75571 16.5842C8.02547 16.2357 7.19695 16.1213 6.3932 16.2581C5.58944 16.3949 4.85334 16.7755 4.29423 17.3435C3.73512 17.9115 3.38282 18.6364 3.28967 19.4108C3.25547 20.1268 3.44743 20.8361 3.84066 21.4467C4.23388 22.0573 4.81021 22.541 5.4949 22.835C6.17959 23.1291 6.94104 23.22 7.68048 23.0958C8.41992 22.9717 9.10324 22.6383 9.64178 22.1389C9.73786 22.4725 9.8215 22.7683 9.91161 23.0871C10.0564 23.5992 10.2178 24.1703 10.4745 25.052C5.12306 27.8057 1.32142 24.3633 0.627878 20.7084C0.0178181 17.4244 1.65428 15.3053 4.17907 13.7961C5.03683 13.3995 5.97416 13.1844 6.92701 13.1654C7.87987 13.1463 8.8258 13.3239 9.70017 13.6859C10.5745 14.048 11.3567 14.5859 11.9934 15.263C12.63 15.9402 13.106 16.7405 13.3888 17.6094C13.6382 18.4299 18.4652 32.9166 18.4652 32.9166Z" fill="#FBA919"></path></svg>